# xmcd
#
# Track frame offsets: 
#        150
#        19089
#        35151
#        51909
#        66473
#        84885
#        104227
#        123757
#        137132
#        156928
#        174493
#        186554
#        199696
#        213129
#        238146
#        258993
#        278401
#        296388
#        307703
#
# Disc length: 4265 seconds
#
# Revision: 1
# Processed by: cddbd v1.5.2PL0 Copyright (c) Steve Scherf et al.
# Submitted via: ExactAudioCopyFreeDBPlugin 1.0
#
DISCID=1410a713
DTITLE=Bunbury - Archivos Volumen 1 - Tributos y BSOs - Disco 1
DYEAR=2016
DGENRE=Blues
TTITLE0=Hada chalada (versión bossa)
TTITLE1=Vete de mí
TTITLE2=Voy a perder la cabeza por tu amor
TTITLE3=Con el alma en los labios
TTITLE4=Frío
TTITLE5=Afuera
TTITLE6=Corre por la jungla
TTITLE7=Candela
TTITLE8=Sí
TTITLE9=Dies Irae
TTITLE10=Tú eres mi destino
TTITLE11=Ni quiero ni sé olvidarte
TTITLE12=El hijo del pueblo
TTITLE13=Es sólo un día más
TTITLE14=Vida
TTITLE15=Que el amor no admite cuerdas reflexiones (a la manera de San
TTITLE15=ta Fé)
TTITLE16=Fregonas
TTITLE17=Who by fire
TTITLE18=Nana de los peces muertos
EXTD=
EXTT0=
EXTT1=
EXTT2=
EXTT3=
EXTT4=
EXTT5=
EXTT6=
EXTT7=
EXTT8=
EXTT9=
EXTT10=
EXTT11=
EXTT12=
EXTT13=
EXTT14=
EXTT15=
EXTT16=
EXTT17=
EXTT18=
PLAYORDER=
